<?xml version="1.0" encoding="UTF-8"?>
<!DOCTYPE svg PUBLIC "-//W3C//DTD SVG 1.1//EN" "http://www.w3.org/Graphics/SVG/1.1/DTD/svg11.dtd">
<svg xmlns="http://www.w3.org/2000/svg" version="1.1" width="1000px" height="1000px" style="shape-rendering:geometricPrecision; text-rendering:geometricPrecision; image-rendering:optimizeQuality; fill-rule:evenodd; clip-rule:evenodd" xmlns:xlink="http://www.w3.org/1999/xlink">
<g><path style="opacity:0.999" fill="#e11d48" d="M 470.5,-0.5 C 489.833,-0.5 509.167,-0.5 528.5,-0.5C 683.283,11.7931 807.783,79.1264 902,201.5C 960.334,281.658 992.834,371.325 999.5,470.5C 999.5,489.833 999.5,509.167 999.5,528.5C 987.202,683.294 919.868,807.794 797.5,902C 717.341,960.334 627.675,992.834 528.5,999.5C 509.167,999.5 489.833,999.5 470.5,999.5C 315.703,987.2 191.203,919.867 97,797.5C 38.6658,717.341 6.16576,627.675 -0.5,528.5C -0.5,509.167 -0.5,489.833 -0.5,470.5C 11.7982,315.706 79.1315,191.206 201.5,97C 281.66,38.6652 371.327,6.16523 470.5,-0.5 Z"/></g>
<g><path style="opacity:1" fill="#fefefe" d="M 505.5,212.5 C 534.015,210.456 559.348,218.289 581.5,236C 606.517,259.516 624.351,287.682 635,320.5C 642.244,340.81 648.244,361.477 653,382.5C 666.776,446.382 678.109,510.715 687,575.5C 691.55,615.414 692.55,655.414 690,695.5C 687.706,720.049 680.04,742.716 667,763.5C 654.416,781.203 637.25,788.703 615.5,786C 598.462,782.955 585.962,773.788 578,758.5C 567.956,738.998 561.623,718.331 559,696.5C 555.777,668.598 554.277,640.598 554.5,612.5C 518.546,617.921 482.546,623.088 446.5,628C 443.37,661.316 435.537,693.482 423,724.5C 415.198,741.627 404.365,756.46 390.5,769C 358.298,788.832 334.465,781.665 319,747.5C 314.145,734.563 310.812,721.23 309,707.5C 304.891,657.787 307.557,608.454 317,559.5C 325.979,509.624 337.313,460.29 351,411.5C 365.036,364.359 385.036,320.026 411,278.5C 425.208,258.625 442.375,241.791 462.5,228C 475.897,219.926 490.23,214.759 505.5,212.5 Z"/></g>
<g><path style="opacity:1" fill="#e12049" d="M 461.5,512.5 C 460.167,512.5 458.833,512.5 457.5,512.5C 457.5,511.5 457.5,510.5 457.5,509.5C 460.534,473.631 466.7,438.298 476,403.5C 479.878,388.852 485.878,375.186 494,362.5C 501.966,354.048 510.799,353.215 520.5,360C 524.288,364.406 527.455,369.239 530,374.5C 539.294,398.259 544.294,422.925 545,448.5C 546.323,466.151 546.657,483.817 546,501.5C 518.007,506.296 489.841,509.963 461.5,512.5 Z"/></g>
<g><path style="opacity:1" fill="#f198ab" d="M 457.5,509.5 C 457.5,510.5 457.5,511.5 457.5,512.5C 458.833,512.5 460.167,512.5 461.5,512.5C 460.081,513.451 458.415,513.784 456.5,513.5C 456.232,511.901 456.566,510.568 457.5,509.5 Z"/></g>
</svg>
